<svg width="22" height="21" viewBox="0 0 22 21" fill="none" xmlns="http://www.w3.org/2000/svg">
<path d="M20.6526 4.01069C20.3906 3.33498 19.9901 2.72135 19.4768 2.20907C18.9635 1.69679 18.3488 1.29716 17.6719 1.03576C16.8799 0.738896 16.0431 0.578376 15.1973 0.561036C14.1071 0.513563 13.7618 0.5 10.9974 0.5C8.2329 0.5 7.87857 0.5 6.79746 0.561036C5.95226 0.577489 5.11609 0.738042 4.32506 1.03576C3.64802 1.29686 3.03312 1.69638 2.51981 2.2087C2.00651 2.72101 1.60613 3.3348 1.34437 4.01069C1.04698 4.80146 0.88658 5.637 0.870036 6.48152C0.821357 7.56886 0.806641 7.9136 0.806641 10.6749C0.806641 13.4351 0.806641 13.7866 0.870036 14.8683C0.887016 15.7138 1.04664 16.5479 1.34437 17.3403C1.60686 18.0159 2.00763 18.6294 2.52106 19.1417C3.03449 19.6539 3.64929 20.0536 4.32619 20.3152C5.11572 20.624 5.95224 20.796 6.79972 20.8238C7.88989 20.8713 8.23516 20.886 10.9996 20.886C13.7641 20.886 14.1184 20.886 15.1995 20.8238C16.0453 20.8066 16.882 20.6465 17.6742 20.3502C18.3509 20.0882 18.9655 19.6882 19.4787 19.1758C19.9919 18.6634 20.3925 18.0498 20.6549 17.3742C20.9526 16.583 21.1123 15.7488 21.1292 14.9033C21.1779 13.816 21.1926 13.4713 21.1926 10.7099C21.1926 7.94864 21.1926 7.59825 21.1292 6.51656C21.1161 5.6601 20.9548 4.81235 20.6526 4.01069ZM19.2738 14.7847C19.2665 15.4361 19.1474 16.0814 18.9217 16.6926C18.7517 17.1321 18.4915 17.5313 18.1577 17.8643C17.8239 18.1974 17.424 18.457 16.9837 18.6265C16.3783 18.8508 15.7388 18.9697 15.0931 18.9781C14.0177 19.0278 13.7143 19.0402 10.9566 19.0402C8.19667 19.0402 7.91479 19.0402 6.81897 18.9781C6.17362 18.9702 5.53446 18.8512 4.92957 18.6265C4.48772 18.4581 4.0862 18.1989 3.75098 17.8658C3.41577 17.5327 3.15433 17.133 2.98358 16.6926C2.76107 16.0879 2.64205 15.4502 2.63151 14.8061C2.58283 13.7324 2.57151 13.4294 2.57151 10.676C2.57151 7.92151 2.57151 7.64007 2.63151 6.54481C2.63882 5.89379 2.75791 5.24884 2.98358 4.63801C3.32885 3.7462 4.03638 3.04429 4.92957 2.70294C5.53476 2.4793 6.17373 2.36042 6.81897 2.35142C7.89555 2.30282 8.19781 2.28926 10.9566 2.28926C13.7154 2.28926 13.9984 2.28926 15.0931 2.35142C15.7389 2.35918 16.3784 2.4781 16.9837 2.70294C17.4239 2.8728 17.8238 3.13268 18.1576 3.46593C18.4913 3.79917 18.7516 4.1984 18.9217 4.63801C19.1442 5.24266 19.2633 5.88038 19.2738 6.52447C19.3225 7.59938 19.3349 7.90117 19.3349 10.6557C19.3349 13.4091 19.3349 13.7052 19.2863 14.7858H19.2738V14.7847Z" fill="white"/>
<path d="M10.9918 5.44165C9.60346 5.44165 8.27202 5.99229 7.29034 6.97245C6.30866 7.9526 5.75716 9.28198 5.75716 10.6681C5.75716 12.0543 6.30866 13.3837 7.29034 14.3638C8.27202 15.344 9.60346 15.8946 10.9918 15.8946C12.3801 15.8946 13.7115 15.344 14.6932 14.3638C15.6749 13.3837 16.2264 12.0543 16.2264 10.6681C16.2264 9.28198 15.6749 7.9526 14.6932 6.97245C13.7115 5.99229 12.3801 5.44165 10.9918 5.44165ZM10.9918 14.0624C10.0898 14.0624 9.22487 13.7047 8.58712 13.0679C7.94937 12.4311 7.59108 11.5675 7.59108 10.667C7.59108 9.76648 7.94937 8.90285 8.58712 8.26609C9.22487 7.62932 10.0898 7.2716 10.9918 7.2716C11.8937 7.2716 12.7587 7.62932 13.3964 8.26609C14.0342 8.90285 14.3924 9.76648 14.3924 10.667C14.3924 11.5675 14.0342 12.4311 13.3964 13.0679C12.7587 13.7047 11.8937 14.0624 10.9918 14.0624Z" fill="white"/>
<path d="M16.4336 6.46795C17.1075 6.46795 17.6539 5.92243 17.6539 5.2495C17.6539 4.57656 17.1075 4.03104 16.4336 4.03104C15.7596 4.03104 15.2132 4.57656 15.2132 5.2495C15.2132 5.92243 15.7596 6.46795 16.4336 6.46795Z" fill="white"/>
</svg>
