<svg width="24" height="18" viewBox="0 0 24 18" fill="none" xmlns="http://www.w3.org/2000/svg">
<path d="M11.7073 10.0948C11.0473 10.0948 10.5073 9.55482 10.5073 8.89482C10.5073 8.23482 11.0473 7.69482 11.7073 7.69482C12.3673 7.69482 12.9073 8.23482 12.9073 8.89482C12.9073 9.55482 12.3673 10.0948 11.7073 10.0948Z" fill="white"/>
<path d="M12 14.2499C13.3924 14.2499 14.7277 13.6968 15.7123 12.7122C16.6969 11.7276 17.25 10.3923 17.25 8.99988C17.25 7.60749 16.6969 6.27213 15.7123 5.28757C14.7277 4.303 13.3924 3.74988 12 3.74988C10.6076 3.74988 9.27226 4.303 8.28769 5.28757C7.30312 6.27213 6.75 7.60749 6.75 8.99988C6.75 10.3923 7.30312 11.7276 8.28769 12.7122C9.27226 13.6968 10.6076 14.2499 12 14.2499ZM12 5.62488C13.8375 5.64738 15.33 7.18488 15.33 9.03738V9.64488C15.33 10.3124 14.7825 10.8599 14.115 10.8599C13.6575 10.8599 13.26 10.6049 13.05 10.2299C12.705 10.5749 12.225 10.7924 11.7 10.7924C10.65 10.7924 9.795 9.93738 9.795 8.88738C9.795 7.83738 10.65 6.98238 11.7 6.98238C12.1575 6.98238 12.57 7.14738 12.9 7.40988V7.34238C12.9 7.14738 13.0725 6.98988 13.2675 6.98988C13.4625 6.98988 13.62 7.14738 13.62 7.34238V9.65238C13.62 9.78565 13.6729 9.91346 13.7672 10.0077C13.8614 10.1019 13.9892 10.1549 14.1225 10.1549C14.2558 10.1549 14.3836 10.1019 14.4778 10.0077C14.5721 9.91346 14.625 9.78565 14.625 9.65238V9.04488C14.625 7.56738 13.44 6.35238 11.9925 6.32988C11.2725 6.32988 10.59 6.59988 10.08 7.10238C9.57 7.60488 9.285 8.27988 9.285 8.99988C9.285 10.4699 10.485 11.6699 11.955 11.6699C12.0485 11.6699 12.1381 11.707 12.2043 11.7731C12.2704 11.8392 12.3075 11.9289 12.3075 12.0224C12.3075 12.1159 12.2704 12.2055 12.2043 12.2716C12.1381 12.3377 12.0485 12.3749 11.955 12.3749C10.095 12.3749 8.58 10.8599 8.58 8.99988C8.58 8.09238 8.9325 7.23738 9.585 6.59988C10.23 5.95488 11.0925 5.60988 12 5.62488Z" fill="white"/>
<path d="M0.750002 2.25738C0.750002 1.42338 1.4235 0.749878 2.2575 0.749878H21.75C22.5818 0.749878 23.25 1.42788 23.25 2.25738V15.7499C23.25 16.5816 22.572 17.2499 21.7425 17.2499H2.2575C2.05945 17.2502 1.86329 17.2114 1.68026 17.1357C1.49722 17.0601 1.33092 16.949 1.19088 16.809C1.05083 16.669 0.939804 16.5027 0.86415 16.3196C0.788496 16.1366 0.749705 15.9404 0.750002 15.7424V2.25738ZM2.25 2.25363V2.62638L7.0125 5.66088C6.73101 6.07977 6.5037 6.53262 6.336 7.00863L2.25 4.40463V14.0099L6.465 11.3241C6.65955 11.7871 6.91153 12.2238 7.215 12.6239L2.31 15.7499H21.7013L16.7835 12.6201C17.0871 12.2195 17.3391 11.7824 17.5335 11.3189L21.75 14.0031V4.40988L17.661 7.01238C17.4938 6.5362 17.267 6.0831 16.986 5.66388L21.75 2.63313V2.25213L21.747 2.24988H2.25375L2.2515 2.25138L2.25075 2.25288L2.25 2.25363Z" fill="white"/>
</svg>
