<svg width="21" height="21" viewBox="0 0 21 21" fill="none" xmlns="http://www.w3.org/2000/svg">
<path fill-rule="evenodd" clip-rule="evenodd" d="M15.052 20.6328C13.612 20.5798 9.531 20.0159 5.257 15.7428C0.984 11.4688 0.421 7.38885 0.367 5.94785C0.287 3.75185 1.969 1.61885 3.912 0.785849C4.14598 0.684816 4.4022 0.64635 4.65553 0.674225C4.90886 0.7021 5.15059 0.795358 5.357 0.944849C6.957 2.11085 8.061 3.87485 9.009 5.26185C9.21758 5.56658 9.30677 5.9374 9.25956 6.30365C9.21235 6.6699 9.03204 7.00598 8.753 7.24785L6.802 8.69685C6.70774 8.76491 6.64139 8.86488 6.61528 8.97817C6.58916 9.09147 6.60505 9.21039 6.66 9.31285C7.102 10.1158 7.888 11.3118 8.788 12.2118C9.689 13.1118 10.941 13.9499 11.8 14.4418C11.9077 14.5023 12.0345 14.5192 12.1543 14.4891C12.274 14.4589 12.3777 14.3841 12.444 14.2798L13.714 12.3468C13.9475 12.0367 14.2919 11.8289 14.6752 11.767C15.0584 11.7051 15.4508 11.794 15.77 12.0148C17.177 12.9888 18.819 14.0739 20.021 15.6129C20.1826 15.8208 20.2854 16.0683 20.3187 16.3295C20.3519 16.5907 20.3144 16.8561 20.21 17.0978C19.373 19.0508 17.255 20.7138 15.052 20.6328Z" fill="white"/>
</svg>
