<svg width="61" height="42" viewBox="0 0 61 42" fill="none" xmlns="http://www.w3.org/2000/svg">
<path d="M60.1536 21C60.1536 32.598 46.7221 42 30.1536 42C13.585 42 0.153564 32.598 0.153564 21C0.153564 9.40202 13.585 0 30.1536 0C46.7221 0 60.1536 9.40202 60.1536 21Z" fill="white"/>
<path d="M45.1536 17.5H35.1536V10.5C35.1536 9.57174 34.6268 8.6815 33.6891 8.02513C32.7514 7.36875 31.4796 7 30.1536 7C28.8275 7 27.5557 7.36875 26.618 8.02513C25.6804 8.6815 25.1536 9.57174 25.1536 10.5L25.3311 17.5H15.1536C13.8275 17.5 12.5557 17.8688 11.618 18.5251C10.6803 19.1815 10.1536 20.0717 10.1536 21C10.1536 21.9283 10.6803 22.8185 11.618 23.4749C12.5557 24.1312 13.8275 24.5 15.1536 24.5L25.3311 24.3757L25.1536 31.5C25.1536 32.4283 25.6804 33.3185 26.618 33.9749C27.5557 34.6312 28.8275 35 30.1536 35C31.4796 35 32.7514 34.6312 33.6891 33.9749C34.6268 33.3185 35.1536 32.4283 35.1536 31.5V24.3757L45.1536 24.5C46.4797 24.5 47.7514 24.1312 48.6891 23.4749C49.6268 22.8185 50.1536 21.9283 50.1536 21C50.1536 20.0717 49.6268 19.1815 48.6891 18.5251C47.7514 17.8688 46.4797 17.5 45.1536 17.5Z" fill="black"/>
</svg>
