<svg width="61" height="42" viewBox="0 0 61 42" fill="none" xmlns="http://www.w3.org/2000/svg">
<path d="M60.0767 21C60.0767 32.598 46.6452 42 30.0767 42C13.5081 42 0.0766602 32.598 0.0766602 21C0.0766602 9.40202 13.5081 0 30.0767 0C46.6452 0 60.0767 9.40202 60.0767 21Z" fill="white"/>
<path d="M56.2432 21C56.2432 21.9283 55.7165 22.8185 54.7788 23.4749C53.8411 24.1313 52.5693 24.5 51.2432 24.5H7.90991C6.58383 24.5 5.31206 24.1313 4.37438 23.4749C3.4367 22.8185 2.90991 21.9283 2.90991 21C2.90991 20.0717 3.4367 19.1815 4.37438 18.5251C5.31206 17.8687 6.58383 17.5 7.90991 17.5H51.2432C52.5693 17.5 53.8411 17.8687 54.7788 18.5251C55.7165 19.1815 56.2432 20.0717 56.2432 21Z" fill="#31373D"/>
</svg>
